<svg xmlns="http://www.w3.org/2000/svg" width="1200" height="630" viewBox="0 0 1200 630">
  <defs>
    <linearGradient id="brand" x1="0" y1="0" x2="1" y2="1">
      <stop offset="0" stop-color="#38d6f5"/>
      <stop offset="1" stop-color="#8b5cf6"/>
    </linearGradient>
    <radialGradient id="glow1" cx="0.85" cy="0.05" r="0.7">
      <stop offset="0" stop-color="#8b5cf6" stop-opacity="0.35"/>
      <stop offset="1" stop-color="#8b5cf6" stop-opacity="0"/>
    </radialGradient>
    <radialGradient id="glow2" cx="0.05" cy="0.9" r="0.7">
      <stop offset="0" stop-color="#38d6f5" stop-opacity="0.28"/>
      <stop offset="1" stop-color="#38d6f5" stop-opacity="0"/>
    </radialGradient>
  </defs>

  <rect width="1200" height="630" fill="#0a0e17"/>
  <rect width="1200" height="630" fill="url(#glow1)"/>
  <rect width="1200" height="630" fill="url(#glow2)"/>

  <!-- Logo mark -->
  <g transform="translate(120 195)">
    <rect x="0" y="0" width="240" height="240" rx="52" fill="#101626" stroke="url(#brand)" stroke-width="10"/>
    <circle cx="120" cy="120" r="62" fill="none" stroke="url(#brand)" stroke-width="13" opacity="0.5"/>
    <path d="M120 58a62 62 0 0 1 62 62" fill="none" stroke="url(#brand)" stroke-width="19" stroke-linecap="round"/>
    <circle cx="120" cy="120" r="21" fill="url(#brand)"/>
  </g>

  <!-- Wordmark and tagline -->
  <g font-family="system-ui, -apple-system, 'Segoe UI', Roboto, Arial, sans-serif">
    <text x="430" y="298" font-size="104" font-weight="800" letter-spacing="1" fill="#e9edf7">App<tspan fill="#38d6f5">Watch</tspan></text>
    <text x="434" y="368" font-size="34" font-weight="500" fill="#9aa7c4">Track App Store &amp; Google Play updates,</text>
    <text x="434" y="416" font-size="34" font-weight="500" fill="#9aa7c4">versions, release notes and history.</text>
  </g>

  <!-- Version chips motif -->
  <g font-family="ui-monospace, Menlo, Consolas, monospace" font-size="26" font-weight="600">
    <rect x="434" y="462" width="150" height="48" rx="10" fill="#101626" stroke="#22304c" stroke-width="2"/>
    <text x="458" y="494" fill="#9aa7c4">v2.4.0</text>
    <path d="M604 486h44" stroke="#38d6f5" stroke-width="4" stroke-linecap="round"/>
    <path d="M636 474l14 12-14 12" fill="none" stroke="#38d6f5" stroke-width="4" stroke-linecap="round" stroke-linejoin="round"/>
    <rect x="668" y="462" width="150" height="48" rx="10" fill="#101626" stroke="#38d6f5" stroke-width="2.5"/>
    <text x="692" y="494" fill="#38d6f5">v2.5.0</text>
  </g>
</svg>
